<svg height="160" viewBox="0 0 160 160" width="160" xmlns="http://www.w3.org/2000/svg"><g fill="none" fill-rule="evenodd"><path d="m0 0h160v160h-160z" fill="#fff" fill-rule="nonzero"/><g fill="#000" transform="translate(2 65)"><path d="m17.5675676 0c5.8741447 10.0562016 11.7174269 20.1294073 17.5675675 30.1992122-1.0698967.017004-2.1432226.0204048-3.2165485.0068016-3.3057067-3.1219456-6.954329-6.0466441-11.233916-7.7300461-3.9743921-1.5881793-8.7717817-1.3501224-12.38611243 1.0168428-2.48613829 1.6323899-4.01897115 4.2408128-5.51065412 6.7234057-.92930135 0-1.8586027-.0034008-2.78790405-.017004 5.85356975-10.0664041 11.7071395-20.136209 17.5675676-30.1992122zm.0034291 5.10461908c-3.0622365 5.22024672-6.0901815 10.45749742-9.15241806 15.67434332 2.15693926-1.3229159 4.74252316-1.7412158 7.24580716-1.6527947 5.1814552.0680162 9.9788448 2.7240506 13.7029085 6.1418668-3.9606755-6.7064016-7.8493387-13.4502122-11.7962976-20.16341542z" fill-rule="nonzero"/><path d="m119.121647.7027027h2.445921v30.0493687c-.84559 0-1.69118 0-2.533276 0 0-1.4641619-.003494-2.9283238.006989-4.3890806-1.645756 1.9476758-3.850579 3.4901533-6.362889 4.1643488-3.448749.9602177-7.397164.129391-10.0737-2.216673-5.2552365-4.4571812-5.6989964-13.2727977-.828119-18.1556072 4.088182-4.17115887 11.708973-4.41632086 15.964875-.36093297.496173.46308377.932944.98064797 1.387187 1.48459207-.017471-3.52420361 0-7.04840719-.006988-10.5760158zm-10.842419 8.5704545c-1.890347.3200726-3.63394 1.3075306-4.912807 2.6899718-3.8366016 4.1813739-3.211145 11.4749431 1.348751 14.924236 3.941427 2.9862092 10.328775 1.7808295 12.942416-2.3358489 2.34459-3.701265 2.253742-8.9381975-.663893-12.3227949-2.075538-2.43118975-5.548746-3.55144383-8.714467-2.955564z" fill-rule="nonzero"/><path d="m127.252368.24471893c.929784-.54242612 2.36799-.1617171 2.643095.92987336.417881 1.07811404-.470116 2.45270944-1.720276 2.33142161-1.695899.07412034-2.312273-2.45270944-.922819-3.26129497z"/><path d="m41.1916439 9.46557855c1.961438-2.8723789 6.3061284-4.11946156 9.4029507-2.26587422-.4429053.7121319-.8682351 1.43107846-1.2865346 2.15343235-1.1353843-.4020649-2.3445862-.76324185-3.5678485-.55880207-2.5800994.37821359-4.5802037 2.80763969-4.5450524 5.31202699.0070302 5.3699515.0035151 10.7399031.0035151 16.1098546-.8506595 0-1.7013189 0-2.5484633 0-.0035151-7.8061922 0-15.6157918 0-23.4219841.8471444-.00340733 1.6942887-.00681466 2.5449482-.00681466.0035151.89272037.0070302 1.78544074-.0035152 2.67816111z"/><path d="m54.334975 8.98131966c4.1935324-3.56122736 10.9562931-3.52068208 15.1739659-.01013632-.3827978.65886085-.7586983 1.32447926-1.1277016 1.99009766-3.5693306-3.28754672-9.7113381-3.15915332-13.1116859.2973321-3.9797174 3.7639537-3.9624743 10.893166.389695 14.3800603 2.3036839 1.9326585 5.5557407 2.6388222 8.5008695 2.0205067 1.569126-.3851802 2.9244371-1.2906916 4.2280187-2.1928241.389695.6723759.7897359 1.3413731 1.179431 2.0171278-4.8246314 4.2302246-13.0496107 3.4193189-17.0293281-1.5339632-4.1728406-4.9161156-3.2899917-12.9846269 1.7967355-16.96820094z"/><path d="m74.9091896 9.67994662c3.3462773-3.63570944 9.2243221-4.33644674 13.5038917-2.00742617 1.343941.71089291 2.3994098 1.83478075 3.383609 2.96882415-.0203627-1.2897628-.0101814-2.57614044-.0101814-3.86590329.7907532 0 1.5781125 0 2.3722595-.0033852.0067876 7.75888829 0 15.51777659.0033938 23.27666489-.794147 0-1.5849001 0-2.3756533 0 0-1.4759491-.0101813-2.9518982.0101814-4.4278472-1.8530095 2.2917833-4.4967722 4.0385487-7.4493698 4.4684697-3.0951367.4942398-6.3837196-.4739286-8.7050722-2.5829109-4.9243897-4.4447733-5.37237-13.0262663-.7330587-17.82648598zm5.5827851-.80229343c-1.5849001.45023218-3.0136858 1.38793381-4.0793359 2.63707421-3.5872364 4.1468752-2.9525976 11.2151819 1.3405471 14.6342382 3.8519521 3.0466839 10.1610083 1.8483216 12.6961696-2.3290205 2.412985-3.9742299 2.0769997-9.7493885-1.4389671-12.989029-2.2568705-2.05143383-5.5929664-2.79279358-8.5184137-1.95326291z" fill-rule="nonzero"/><path d="m136.113124 10.3790009c3.225724-4.20032498 9.602549-5.21232915 14.161301-2.68401104 1.326244.73107993 2.411661 1.81416132 3.361401 2.97847384-.020352-1.2996977-.010176-2.59601073-.010176-3.89570839h2.37435v23.26932659c-.793711 0-1.584031 0-2.37435 0 .006784-1.4892369-.020351-2.9750892.020352-4.4643261-1.699356 2.091701-4.016043 3.7637079-6.682099 4.3526334-3.378361.8156956-7.133225-.1760008-9.646644-2.5790876-4.545184-4.2815561-5.104852-12.0966652-1.204135-16.9773007zm6.241148-1.50616004c-1.5128.4264633-2.886531 1.28954374-3.934636 2.45385624-3.836271 4.1630941-3.181629 11.5788169 1.366947 14.9668309 3.812527 2.8363194 9.81624 1.661853 12.377146-2.3049326 2.588041-4.044632 2.218321-10.0828107-1.522976-13.3185164-2.228497-1.93262331-5.45422-2.59262603-8.286481-1.79723814z" fill-rule="nonzero"/><path d="m126.488209 30.2162162c0-7.728134-.003875-15.459653 0-23.18778703.937654-.00338508 1.871434 0 2.809088.00338508-.003874 7.72813395 0 15.45626795 0 23.18440195-.937654 0-1.875309 0-2.809088 0z"/></g></g></svg>