<svg height="160" width="160" xmlns="http://www.w3.org/2000/svg"><g fill="none" fill-rule="evenodd"><path d="M0 0h160v160H0z" fill="#fff" fill-rule="nonzero"/><g fill="#000"><path d="M19.568 65c5.874 10.056 11.717 20.13 17.567 30.2-1.07.016-2.143.02-3.216.006-3.306-3.122-6.955-6.047-11.234-7.73-3.975-1.588-8.772-1.35-12.386 1.017-2.487 1.632-4.02 4.24-5.511 6.723-.93 0-1.859-.003-2.788-.017C7.854 85.133 13.707 75.063 19.568 65zm.003 5.105c-3.062 5.22-6.09 10.457-9.152 15.674 2.157-1.323 4.742-1.741 7.245-1.653 5.182.068 9.98 2.724 13.703 6.142-3.96-6.706-7.849-13.45-11.796-20.163zm101.55-4.402h2.447v30.05h-2.534c0-1.465-.003-2.93.007-4.39-1.645 1.948-3.85 3.49-6.363 4.164-3.448.96-7.397.13-10.073-2.216-5.256-4.458-5.7-13.273-.828-18.156 4.088-4.171 11.709-4.416 15.964-.36.497.462.933.98 1.388 1.484-.018-3.524 0-7.049-.007-10.576zm-10.842 8.57c-1.89.32-3.634 1.308-4.913 2.69-3.836 4.182-3.21 11.475 1.35 14.924 3.94 2.987 10.328 1.781 12.942-2.335 2.344-3.702 2.253-8.939-.664-12.323-2.076-2.431-5.55-3.552-8.715-2.956z" fill-rule="nonzero"/><path d="M129.252 65.245c.93-.543 2.368-.162 2.643.93.418 1.078-.47 2.452-1.72 2.331-1.696.074-2.312-2.453-.923-3.261zm-86.06 9.22c1.961-2.872 6.306-4.119 9.403-2.265a79.558 79.558 0 0 0-1.287 2.153c-1.135-.402-2.345-.763-3.568-.559-2.58.379-4.58 2.808-4.545 5.312.007 5.37.004 10.74.004 16.11H40.65c-.003-7.806 0-15.616 0-23.422.847-.003 1.694-.007 2.545-.007.004.893.007 1.786-.003 2.679zm13.143-.484c4.194-3.56 10.956-3.52 15.174-.01-.383.659-.759 1.325-1.128 1.99-3.57-3.287-9.711-3.159-13.111.298-3.98 3.764-3.963 10.893.39 14.38 2.303 1.932 5.555 2.638 8.5 2.02 1.57-.385 2.925-1.29 4.228-2.193.39.673.79 1.342 1.18 2.017-4.825 4.23-13.05 3.42-17.03-1.533-4.173-4.917-3.29-12.985 1.797-16.969z"/><path d="M76.91 74.68c3.345-3.636 9.224-4.337 13.503-2.007 1.344.71 2.4 1.834 3.384 2.968-.02-1.29-.01-2.576-.01-3.866.79 0 1.578 0 2.372-.003.007 7.759 0 15.518.003 23.277h-2.375c0-1.476-.01-2.952.01-4.428-1.853 2.292-4.497 4.038-7.45 4.468-3.095.495-6.383-.474-8.705-2.583-4.924-4.444-5.372-13.026-.733-17.826zm5.582-.802a8.433 8.433 0 0 0-4.08 2.637c-3.587 4.147-2.952 11.215 1.341 14.634 3.852 3.047 10.161 1.848 12.696-2.33 2.413-3.973 2.077-9.748-1.439-12.988-2.256-2.052-5.593-2.793-8.518-1.953zm55.621 1.501c3.226-4.2 9.603-5.212 14.161-2.684 1.327.731 2.412 1.814 3.362 2.978-.02-1.3-.01-2.596-.01-3.895H158v23.27h-2.374c.006-1.49-.02-2.976.02-4.465-1.7 2.091-4.016 3.763-6.682 4.352-3.378.816-7.133-.176-9.647-2.579-4.545-4.281-5.105-12.096-1.204-16.977zm6.241-1.506a8.383 8.383 0 0 0-3.934 2.454c-3.837 4.163-3.182 11.579 1.367 14.967 3.812 2.836 9.816 1.661 12.377-2.305 2.588-4.045 2.218-10.083-1.523-13.319-2.229-1.933-5.454-2.593-8.287-1.797z" fill-rule="nonzero"/><path d="M128.488 95.216c0-7.728-.004-15.46 0-23.188.938-.003 1.872 0 2.81.004-.005 7.728 0 15.456 0 23.184h-2.81z"/></g></g></svg>