<svg height="160" viewBox="0 0 160 160" width="160" xmlns="http://www.w3.org/2000/svg"><g fill="none"><path d="m0 0h160v160h-160z" fill="#fff"/><path d="m79.9973975 2c-42.8998699 0-77.9973975 35.5191352-77.9973975 78.9395082 0 36.7110878 25.098662 67.7695108 58.7856261 76.4879388 5.9649661 1.545894 11.7373461-3.180275 11.7373461-9.410697v-29.731141c0-7.042407-8.416536-10.571419-13.3352908-5.584998l-.1197157.119715c-2.633746 2.664976-6.8758467 3.352041-9.91038 1.160722-1.8015303-1.303135-2.946089-3.326348-3.1350373-5.541742-.1889484-2.215395.5964565-4.403212 2.1512863-5.992608l.4476327-.447632c4.9187548-4.9812154 1.4365887-13.496647-5.5277435-13.496647h-18.0978946c-3.7268026 0-7.2037636-2.5504654-7.8231624-6.272063-.3821807-2.1859221.2156304-4.4293534 1.6348703-6.1352477s3.5164817-2.7018557 5.7354544-2.723716h18.5559374c6.9591271 0 10.4412932-8.5102265 5.5225384-13.4914417l-12.8043775-12.9605285c-2.633746-2.6597711-3.3051951-6.9539221-1.145107-10.0248907 1.260833-1.8165314 3.2645282-2.9779019 5.4674712-3.1690248 2.2029431-.1911229 4.3767111.6078193 5.9315479 2.1800688l13.1166794 13.2780354c4.9239599 4.9812152 13.3404958 1.4574089 13.3404958-5.5902038v-.5257082c0-4.5856328 4.0807448-8.249975 8.744453-7.4588102 3.6799573.6246038 6.1991926 4.1432051 6.1991926 7.916853v.0676654c0 7.0424076 8.4165359 10.566214 13.3352912 5.5902038l12.804377-12.9553235c2.633746-2.6649761 6.870642-3.3468352 9.91038-1.160722 3.851723 2.7794869 4.17964 8.2916152.978546 11.5343499l-13.121884 13.2780354c-4.92396 4.9812152-1.436589 13.4966468 5.517333 13.4966468h-2.123653c3.690367 0 7.136098 2.488005 7.802342 6.1627573.416133 2.1982142-.163048 4.4678324-1.581622 6.1978496-1.418574 1.7300173-3.530741 2.7426236-5.767882 2.7652147h1.67602c-6.959127 0-10.446498 8.5154316-5.522538 13.496647l14.324246 14.496013c2.633746 2.670181 3.305195 6.959127 1.145107 10.030095-1.260833 1.816532-3.264528 2.977902-5.467471 3.169025s-4.376711-.607819-5.931548-2.180069l-14.641753-14.818724c-4.9187553-4.981216-13.3352912-1.452204-13.3352912 5.590203v29.731141c0 6.230422 5.777585 10.956591 11.7373461 9.410697 33.6869641-8.713223 58.7908311-39.771646 58.7908311-76.4827338-.005205-43.420373-35.102733-78.9447132-78.0026025-78.9447132zm7.4119649 14.03797c0 4.1380001-3.3156051 7.4952454-7.4119649 7.4952454-4.114502-.0257951-7.4298272-3.3807272-7.4067599-7.4952454 0-4.1432051 3.3156051-7.5004504 7.4067599-7.5004504 4.0963598 0 7.4119649 3.3572453 7.4119649 7.4952454zm61.1799406 63.3348237c0 4.1380001-3.315605 7.4952454-7.411965 7.4952454-4.114502-.0257951-7.429827-3.3807273-7.40676-7.4952454 0-4.1432051 3.315605-7.5004504 7.40676-7.5004504 4.09636 0 7.411965 3.3572453 7.411965 7.4952454zm-104.7720797 42.4314173c0 4.143205-3.3156051 7.50045-7.4119649 7.50045-4.1153388-.028654-7.4298348-3.385076-7.4067599-7.50045 0-4.143205 3.3156051-7.500451 7.4119649-7.500451 4.0911548 0 7.4067599 3.357246 7.4067599 7.500451z" fill="#26b4a4"/></g></svg>