<svg height="160" width="160" xmlns="http://www.w3.org/2000/svg"><g fill="none"><path d="M0 0h160v160H0z" fill="#fff"/><path d="M79.997 2C37.097 2 2 37.52 2 80.94c0 36.71 25.099 67.769 58.786 76.487 5.965 1.546 11.737-3.18 11.737-9.41v-29.731c0-7.043-8.417-10.572-13.335-5.585l-.12.12c-2.634 2.664-6.876 3.351-9.91 1.16a7.641 7.641 0 0 1-.984-11.534l.447-.448c4.92-4.981 1.437-13.497-5.527-13.497H24.996c-3.727 0-7.204-2.55-7.823-6.272a7.558 7.558 0 0 1 7.37-8.859h18.556c6.96 0 10.441-8.51 5.522-13.491L35.817 46.92c-2.634-2.66-3.305-6.954-1.145-10.025a7.438 7.438 0 0 1 11.399-.99l13.117 13.279c4.924 4.98 13.34 1.457 13.34-5.59v-.526c0-4.586 4.08-8.25 8.745-7.46 3.68.625 6.199 4.144 6.199 7.918v.067c0 7.043 8.416 10.567 13.335 5.59l12.804-12.955c2.634-2.665 6.871-3.347 9.91-1.16 3.853 2.78 4.18 8.291.98 11.534L111.378 59.88c-4.924 4.981-1.437 13.497 5.517 13.497h-2.124c3.69 0 7.136 2.488 7.803 6.162a7.558 7.558 0 0 1-7.35 8.963h1.676c-6.96 0-10.446 8.516-5.522 13.497l14.324 14.496c2.634 2.67 3.305 6.96 1.145 10.03a7.438 7.438 0 0 1-11.4.99l-14.64-14.82c-4.92-4.98-13.336-1.452-13.336 5.59v29.732c0 6.23 5.777 10.956 11.737 9.41C132.896 148.714 158 117.656 158 80.945 157.995 37.525 122.897 2 79.997 2zm7.412 14.038c0 4.138-3.315 7.495-7.412 7.495a7.454 7.454 0 0 1-7.406-7.495c0-4.143 3.315-7.5 7.406-7.5 4.097 0 7.412 3.357 7.412 7.495zm61.18 63.335c0 4.138-3.315 7.495-7.412 7.495a7.454 7.454 0 0 1-7.406-7.495c0-4.143 3.315-7.5 7.406-7.5 4.097 0 7.412 3.357 7.412 7.495zM43.817 121.804c0 4.143-3.315 7.5-7.412 7.5a7.459 7.459 0 0 1-7.407-7.5c0-4.143 3.316-7.5 7.412-7.5 4.092 0 7.407 3.357 7.407 7.5z" fill="#26b4a4"/></g></svg>