<svg height="160" viewBox="0 0 160 160" width="160" xmlns="http://www.w3.org/2000/svg"><g fill="none" fill-rule="evenodd"><path d="m0 0h160v160h-160z" fill="#fff"/><g transform="translate(2 5)"><path d="m106.139628 0h1.00562c.955661.30136364 1.829132 1.04107438 1.966116 2.08698347 4.746074 16.80706613 9.671033 33.56739673 14.376818 50.38574383-4.225537 1.2280165-8.391446 2.6494215-12.596033 3.9419008.056405.1514876.11281.3045868.172438.4576859 2.103099-.6591322 4.190082-1.3714462 6.299628-2.0160743 1.619628-.4512397 3.485826-.6994215 5.005537.2046694 1.089422.7783884 2.022521 1.8049587 2.588182 3.0281405.459297 1.4278512-.169215 3.1731818.987892 4.3464049 7.833843 9.198843 15.653182 18.4138017 23.472521 27.6239257 2.190124 2.6478099 4.551074 5.1602479 6.581653 7.9369834v1.9806199c-.672025 2.1079335-1.110372 4.2835535-1.795289 6.3850415-.128926.773554-.705868 1.344049-1.397232 1.64219-30.452231 11.335785-60.8931815 22.703802-91.3438013 34.046033-6.7669835 2.444752-13.421157 5.20376-20.2945041 7.342314h-.8186777c-1.6147934-.725207-3.4729339-1.519711-4.1884711-3.279545-6.8781818-15.569381-13.7773141-31.133926-20.6877273-46.6888021-.3706611-.9653306-.2610744-2.0386364-.3352066-3.0474794 0-2.7944628-.0902479-5.5937603.0370661-8.385.2771901-1.2924793 1.548719-2.1079338 2.6929339-2.5914049 3.1361157-.9895042 6.3705372-1.6357438 9.521157-2.5785124.4850827-.1434298.9202066-.4077273 1.3230992-.7058678-2.9717355.4415703-5.804876 1.4842562-8.7202066 2.1740083-1.1039256.2868595-2.2288017.5559917-3.2134711 1.1538843-.9556611.5946694-2.1176033.5463223-3.1989669.6655785-4.43342977-18.8215289-9.07152895-37.5963223-13.5807025-56.4017355v-.6430166c.42223141-1.1554958 1.00884298-2.6123554 2.40768595-2.7976859 34.56818185-8.7895042 69.18309915-17.39690086 103.73194205-26.2669835z" fill="#f8d820"/><g fill="#000"><path d="m83.231157 11.3792975c1.6631405-.5430992 3.2537604.858967 3.4552066 2.4834298 3.2553719 12.0239256 6.435 24.0688016 9.6935951 36.0927272.333595 1.3166529.746157 2.6155786 1.0120661 3.9483472.3916116 1.3247107-.4673554 2.7509504-1.6695868 3.2988843-1.1506611.4673553-2.3528925.7832231-3.5406198 1.1393801-15.4211157 4.6590496-30.8454546 9.3164876-46.260124 14.0029339-1.020124.2352893-2.1627273.757438-3.2054132.3319835-.8992562-.423843-1.6486364-1.2312397-1.7840083-2.246529-3.4294215-12.8393801-6.8781818-25.672314-10.3140496-38.508471-.39-1.650248-1.1764462-3.3053306-.8412396-5.0329339.3948347-1.3440496 1.8968182-1.7920661 3.1054958-2.0853719 13.4340496-3.5712397 26.8519835-7.1972727 40.28281-10.7830165 3.3617355-.847686 6.6815702-1.8919835 10.0658677-2.6413637z"/><path d="m100.960041 70.2048347c1.500372-.517314 2.62686.813843 3.472934 1.8291322 6.860455 9.0409091 13.698347 18.1011571 20.568471 27.1356199.515703.7509917 1.08781 1.5616112 1.01529 2.5253302.003223 1.113595-.92343 2.078926-1.969339 2.352893-17.556447 6.172314-35.0887193 12.41876-52.632273 18.626529-1.4794215.515702-2.9685124 1.306983-4.5929752 1.000785-.8541323-.198223-1.4423554-.963719-1.8919835-1.663141-5.9241322-10.293099-11.8627686-20.57814-17.8062397-30.8599582-.4045041-.7671074-.5382644-1.7517769-.0709091-2.5204959.4399587-1.0281818 1.5132645-1.5551653 2.5301653-1.8420248 8.3527686-2.6897107 16.7007025-5.3955372 25.0454132-8.1126446 8.7895042-2.7799587 17.5258265-5.7500826 26.331446-8.4720248z"/><path d="m117.008058 71.9533884c.178884.1853306.32876.3964463.425454.6381818.341653.5511571.834794 1.0249587 1.39562 1.3521075.220785.0838016.439959.172438.665579.2481818.564049.1659917 1.213512.1659917 1.779173 0 .222397-.0773554.441571-.1643802.665579-.2481818.559215-.3271488 1.053967-.8009504 1.39562-1.3521075.093471-.2433471.243347-.4528512.425454-.6381818-.004835.6510744.130537 1.353719-.251405 1.9322728-.423843.5866115-.942768 1.1377686-1.569669 1.5084297-.222397.0838017-.44157.172438-.665579.2481818-.565661.1643802-1.215124.1676033-1.779173 0-.22562-.0773553-.444794-.1643801-.665579-.2481818-.623677-.3722727-1.153884-.918595-1.564834-1.5116529-.041901-.0805785-.124091-.2433471-.164381-.3239256-.195-.5092562-.074132-1.0749174-.091859-1.605124z"/><path d="m126.516322 74.2095868c.178885.1853306.330372.3964463.425455.6381818.341653.5527686.834793 1.0249587 1.39562 1.3521074.219173.0838017.439958.1708265.665578.2481819.56405.1659917 1.213513.1659917 1.779174 0 .222396-.0773554.44157-.1643802.665578-.2481819.559215-.3271487 1.052356-.8009504 1.39562-1.3521074.093471-.2417355.243347-.4528512.425455-.6381818-.017728.5318182.099917 1.0942562-.090248 1.6051239-.041901.0805786-.124091.2433472-.165992.3239257-.412562.5930578-.941157 1.1393801-1.564835 1.5116529-.224008.0838016-.443182.172438-.665578.2481818-.565661.1643801-1.216736.1692149-1.779174-.0032232-.159545-.0499586-.314256-.1031405-.465744-.1595454-.73971-.3255372-1.297314-.9588843-1.769504-1.593843-.383553-.5769421-.248182-1.2811983-.251405-1.9322727z"/><path d="m114.431157 78.3996694c.132149.1530992.269132.3142562.364215.4995868.267521.5978926.802562 1.0410744 1.321488 1.421405.261074.1128099.525371.2256198.797727.3207024.568884.1595455 1.211901.1595455 1.782396 0 .269133-.0950826.53343-.2078925.797728-.3207024.518925-.3803306 1.052355-.8235124 1.321487-1.421405.093471-.1853306.22562-.3464876.364215-.5011983-.012892.5318181.096694 1.0926446-.083801 1.6051239-.343265.7316529-.965331 1.2924794-1.601901 1.7678926-.264298.1144215-.528595.2256198-.797728.3207025-.568884.1595454-1.215123.1595454-1.782396 0-.272356-.0950827-.536653-.2078926-.797727-.3207025-.552769-.3932232-1.049133-.8831405-1.43591-1.4391323-.383553-.5785537-.249793-1.2811983-.249793-1.9322727z"/><path d="m124.098967 80.9765702c.178884.1853306.330372.3964463.425454.6397934.30781.5157025.771943.9395455 1.26186 1.28281.261074.1128099.525372.2256198.797727.3207024.567273.1563223 1.215124.1659918 1.782397-.0048347.154711-.0515702.311033-.1063636.465744-.1659917.08219-.0386777.24657-.1160331.327149-.1530992.496363-.3352066.955661-.7654959 1.266694-1.2795868.093471-.2433471.243347-.4528512.425454-.6381818-.004834.6510744.132149 1.353719-.251405 1.9322727-.386777.5559918-.884752 1.0475207-1.435909 1.4391323-.264297.1128099-.528595.2256198-.797727.3207025-.568884.1595454-1.213512.161157-1.782397 0-.272355-.0950827-.536653-.2078926-.797727-.3207025-.552769-.3932232-1.049132-.8831405-1.435909-1.4391323-.385165-.5785537-.248182-1.2811983-.251405-1.9338843z"/><path d="m125.873306 93.5500413c.193388.1740496.311033.4028926.367438.6559091.249793.3335951.549545.7058678.987892.7767769.356157.1482644.78.1530991 1.137769-.0016116.438347-.0676859.736488-.4415702.987893-.7751653.056404-.2530165.170826-.4834711.367438-.6559091-.008058.4834711.090247.9943389-.090248 1.4568595-.17405.5704959-.692976 1.0942562-1.265083 1.2650827-.357769.1514876-.781612.149876-1.137769-.0016116-.572107-.1708264-1.092644-.6929752-1.265082-1.2634711-.182108-.4625206-.083802-.9733884-.090248-1.4568595z"/><path d="m130.54686 98.5459091c.193388.1740496.309421.4028926.367438.6559091.249793.333595.549545.7058678.987892.7767768.356157.151488.778389.148265 1.137769 0 .436735-.0725206.734876-.4431818.987892-.7767768.058017-.251405.169215-.4834711.367438-.6559091-.008058.4834711.090248.9943388-.090248 1.4568599-.174049.570495-.694586 1.092644-1.265082 1.265082-.357769.148265-.781612.153099-1.137769-.001611-.572107-.169215-1.091033-.692976-1.265083-1.26186-.182107-.4641321-.083801-.9749998-.090247-1.4584709z"/><path d="m36.7421901 100.239669c.195-.001611.3916116-.001611.5882231 0 .1015289.240124.2127273.477025.3319835.712314.1063636.214339.2143388.428678.3255372.643017.1563223.322314.3174793.644628.4834711.965331.1031405.21595.2111157.4319.3190909.647851.0870248.169215.1788843.340041.2723553.510868.2046695.585.0547934 1.229628.0966943 1.838801-.0660744 0-.2014463 0-.2675207 0-.0805785-.196611-.1692149-.388388-.2530165-.580165-.0805785-.153099-.1627686-.302975-.2417356-.452851-.0386777-.080579-.116033-.240124-.1547107-.320703-.1063637-.217562-.2143389-.431901-.3239256-.646239-.1063637-.217562-.2143389-.431901-.3239257-.644629-.1869421-.388388-.3851652-.77033-.5753305-1.157107-.3384298-.44157-.2916942-.994339-.2771901-1.516488z"/><path d="m31.7463223 102.173554c.1966116-.001612.3948347-.001612.5930579 0 .0789669.193388.1676033.385165.2546281.578553.1128099.211116.2223967.427067.3287603.644629.1627686.320702.3255372.643016.4802479.968553.078967.149876.1579339.301364.2369009.454463.0386776.080579.1144214.243347.1530991.323926.0435124.078967.1305372.235289.1740496.314256.3626033.61562.1402066 1.356942.1966116 2.035413-.0660744-.001611-.1966116-.001611-.262686-.001611-.127314-.30781-.2804132-.604339-.4238429-.90248-.11281-.214339-.2207852-.428677-.3255372-.643016-.1095868-.215951-.217562-.431901-.3223141-.64624-.0402892-.080579-.1192562-.238512-.1595454-.317479-.1095868-.215951-.2191736-.431901-.3223141-.647852-.1111983-.214338-.2191735-.430289-.3255372-.643016-.3352066-.443182-.2900826-.995951-.2755785-1.518099z"/><path d="m44.6421074 102.964835c.1885538.001611.3771075.011281.5672728.029008.2401239.165992.3061983.480248.4447934.725207.1079752.212727.2159504.427066.322314.644628.1079752.212727.2159504.427066.3207025.644628.1450413.291694.3158678.573719.4270661.881529.0322314.581777.0032231 1.166777.011281 1.750165-.0950827.009669-.2868595.027397-.3819422.037066-.1659917.070909-.3352066.13376-.506033.190165-.2127273.075744-.4286777.140207-.6397934.219174-.1643802.046735-.3271488.099917-.4866942.161157-.1643802.045124-.3255372.096694-.4850827.157934-.1676033.05157-.3319834.111198-.4931405.180496-.0757438.016115-.2240082.05157-.2981405.067686-.1627686.066074-.3287603.125702-.4963636.178884-.1579339.06124-.3190909.116033-.4802479.165992-.2046694.061239-.4093389.116033-.6172314.159545.1579339.327149.322314.652686.4883058.978223.08219.170827.1692148.341653.2514049.515703.0402893.078967.1224794.238512.1627686.317479.0402893.080579.1208678.241736.161157.322314.0386777.080579.1176447.241736.1579339.322314.1321488.257851.2610744.518926.4028926.775166.2755785.41095.1933884.908925.1998347 1.376281-.0966942.008057-.2884711.025785-.3851653.033842-.1643802.072521-.3303719.136984-.5011983.193389-.1595455.056405-.3223141.107975-.4850827.154711-.1595454.059628-.3207025.114421-.4834711.16438-.1595454.058016-.3207024.111198-.483471.159545-.1595455.059628-.3207025.11281-.4834711.162769-.161157.058016-.3223141.111198-.4866942.159545-.2111157.075744-.4270661.141819-.6381818.220785-.1692149.051571-.3368182.109587-.4995868.177273-.0741323.017727-.2207851.05157-.2949174.067686-.2417355.178884-.5495454.138595-.8299587.125703-.1708264-.14343-.2465702-.357769-.356157-.541488-.0773554-.175661-.161157-.346488-.2401239-.518926-.11281-.212727-.2223967-.428677-.3271488-.643016-.1095868-.215951-.217562-.430289-.3223141-.644628-.1095867-.215951-.2175619-.431901-.3190909-.647851-.0805785-.151488-.161157-.301364-.2417355-.449629-.0902479-.207892-.183719-.412562-.2675207-.618843-.1676033.04029-.333595.088637-.4963636.145042-.1627686.048347-.3239256.10314-.4818595.165992-.1643802.045123-.3255372.099917-.4834711.161157-.1643801.045123-.3255372.096694-.4850826.157933-.1676033.051571-.3319835.111199-.4931405.180496-.0757438.016116-.2240083.051571-.2981405.069298-.1643802.064463-.3303719.124091-.4995868.177273-.2111157.077355-.4270661.141818-.6381818.222396-.1643802.043513-.3271488.095083-.4866942.153099-.228843.069298-.4496281.162769-.6655785.264298-.1514876.06124-.3045868.119256-.4609091.172438-.1611571.05157-.3255372.098306-.4899174.140207-.1095868-.254629-.2256198-.504422-.3513223-.749381-.0838017-.174049-.1708264-.343264-.2546281-.512479-.0402893-.080578-.1208678-.240124-.161157-.319091-.0402893-.080578-.1192562-.241735-.1579339-.322314-.1337603-.259463-.2610744-.520537-.3948347-.778388-.1563223-.325538-.3174794-.649463-.4915289-.963719-.3061984-.464133-.1772728-1.029794-.1982232-1.548719.195-.001612.39-.001612.5866116 0 .1015289.240124.2127273.477024.3319835.712314.1063636.214339.2143388.428677.3271487.643016.0805785.169215.1659918.340042.2481818.51248.1901653.364214.3738843.731652.5463223 1.103925.1047521.259463.3319835.580165.6220662.302975.161157-.049958.322314-.10314.4802479-.162768.1627686-.048347.3239256-.101529.4834711-.161157.1627686-.048347.3255372-.099918.4850826-.157934.1659918-.053182.3319835-.114422.4931405-.180496.0757438-.016116.2240083-.05157.2981405-.069298.1643802-.066074.3303719-.125702.4995868-.177272.2111157-.078967.4270661-.145042.6381818-.220785.1643802-.048347.3255372-.101529.4866942-.161157.1627686-.046736.3239256-.099918.4850827-.157934.1676033-.054794.3319834-.114422.494752-.182108.0741323-.014504.2223967-.045124.296529-.059628.2723553-.330372.5253719.017727.6365702.27719.0354545.08219.1079752.246571.1434298.327149.1917768.364215.3722727.733264.551157 1.105537.1305372.227232.2933058.435124.4254545.663967.1257025.261075.2530166.522149.3851653.781612.1466529.398058.4544628 1.042686.9492149.610785.0725207-.017727.2191735-.049959.2933058-.066075.1627686-.067685.3287603-.127314.4979752-.178884.2127273-.078967.4270661-.145041.6397934-.220785.1643801-.048347.3255372-.10314.4866942-.161157.1627686-.046736.3255372-.099917.4850826-.156322.1692149-.056405.3368182-.119256.5011984-.190166.1095868-.012892.3303719-.038677.4399587-.05157-.1063637-.232066-.217562-.460909-.3319835-.686529-.0838017-.172438-.1708265-.341653-.2530165-.510868-.1111984-.214338-.2191736-.430289-.3223141-.644628-.1337603-.259462-.2610744-.518925-.3916116-.776776-.0870248-.17405-.1788843-.344877-.2707438-.51248-.1772727-.425454-.0886363-.900868-.093471-1.347273-.0096695-.29814.3497107-.317479.5576033-.383553.1595454-.059628.3207024-.11281.4850826-.157934.1579339-.062851.3190909-.116033.4834711-.161157.1579339-.062851.3190909-.116033.4834711-.161157.1579338-.062851.3190909-.116033.483471-.161157.1579339-.062851.3190909-.116033.4834711-.162769.1595455-.059628.3223141-.11281.4866942-.159545.2111157-.078967.4270661-.14343.6397934-.217562.172438-.058017.3432645-.12248.5092562-.196612.0999174-.004835.3013636-.016116.401281-.022562-.1047521-.180496-.2046694-.360992-.3029752-.543099-.1015289-.220785-.2095041-.436736-.3158678-.652686-.0435124-.077355-.1289256-.233678-.172438-.312645-.3287603-.518925-.1643802-1.149049-.1966116-1.725991z"/></g></g></g></svg>