<svg height="160" viewBox="0 0 160 160" width="160" xmlns="http://www.w3.org/2000/svg"><g fill="none" fill-rule="evenodd"><path d="m0 0h160v160h-160z" fill="#fff" fill-rule="nonzero"/><g fill="#111c51" transform="translate(2 18)"><path d="m0 78.7265929c0-25.2154919 17.649937-45.5697985 42.8121284-45.5697985 24.6575135 0 41.4387427 19.4530601 41.4387427 47.9102664v5.0442076h-61.474179c1.3789013 10.9868887 9.7598636 20.1712846 23.8025947 20.1712846 7.0186078 0 16.7812292-3.241715 22.0872415-8.643648l9.5888798 14.766578c-8.2182519 7.925424-21.2350804 12.068385-34.0754096 12.068385-25.1732226 0-44.1799985-17.830817-44.1799985-45.7472751zm42.8121284-27.3784836c-13.5297798 0-19.3515012 10.6263901-20.3801616 19.2728108h40.7575654c-.5157091-8.2859221-5.995463-19.2728108-20.3774038-19.2728108z" fill-rule="nonzero"/><path d="m96.4025417 121.756098v-66.9047974h-13.7823326v-19.9617864h13.7823326v-4.6768563c0-18.5219016 11.3811813-30.2126579 28.0976373-30.2126579 7.927964 0 16.377797 2.15705806 21.715849 8.09381349l-8.272176 13.48507411c-2.242925-2.3342746-5.171497-3.5997117-9.135479-3.5997117-6.034802 0-10.342996 4.1368995-10.342996 12.230713v4.6768563h16.891339v19.9617863h-16.885787v66.9075665z"/><path d="m128.278746 109.254355c0-7.972607 6.338491-14.6759578 13.859249-14.6759578s13.862005 6.6949818 13.862005 14.6759578c0 7.980977-6.338491 14.675959-13.862005 14.675959s-13.859249-6.703351-13.859249-14.675959z"/></g></g></svg>