<svg height="160" viewBox="0 0 160 160" width="160" xmlns="http://www.w3.org/2000/svg"><g fill="none" fill-rule="evenodd"><path d="m0 0h160v160h-160z" fill="#fff" fill-rule="nonzero"/><g transform="translate(2 20)"><path d="m84.5242722 24.8594776-.1026137 94.1305564-25.2202771-8.202381v-110.64141762l32.1922449 8.51117338c20.6065007 5.53824914 33.2171077 16.30373064 33.0118887 35.17120274-.204905 21.9442777-10.354715 30.7617042-30.1415804 25.0195063v-43.2722525c0-5.2297698-9.7396624-5.536023-9.7396624-.7163877z" fill="#de0029"/><path d="m47.6156264 92.5333126-11.89296 4.0000131c-7.690266 2.6666754-14.2508315-3.587966-7.1768816-6.1529773l5.7409346-2.0494031-21.632628-6.8715869c-6.66445268 2.2568566-12.91877077 7.0761783-12.50768275 13.8441974.41013481 6.8693672 16.09564975 8.5108572 28.19446895 10.4592302 11.2769576 1.844814 21.5293837.819633 30.8601902-2.461755v-7.0758666zm37.0109371 26.4567214 22.0427595-7.691225-22.2476645-7.074268v14.251797z" fill="#f3c202"/><path d="m143.270448 98.380039.40981-.1032454c9.637384-3.3827342 13.738418-8.1013502 12.713865-12.5089493-1.640534-7.3824315-13.430883-11.3824336-31.578155-12.7157757-13.020119-.9222512-25.8353167 1.9480659-38.3433229 6.2543234l-2.050673.7186117 22.4528959 6.9726105 13.122735-4.4098231c13.738405-2.5627874 19.275698 1.9483729 6.049405 6.1529773l-6.561844 2.2546239zm-84.0690666-32.6071498-9.9458483 3.3827473 9.9458483 3.0764832z" fill="#326db3"/><path d="m106.669323 111.298809 36.601125-12.91877-23.785912-7.3846467-35.0628775 11.9971617v1.231987zm-47.4679416-22.6616149-11.5854391 3.8964453 11.5854391 3.691525zm25.2202771 6.0516357v-14.6638261l22.4528965 6.9726105zm-50.1346189-6.3578845 24.9140282-8.9209965v-7.1778291l-9.9455347-3.0764832-36.0886917 12.2023847c-.1026159 0-.3075235.1013372-.5124309.1013372z" fill="#00aa9e"/></g></g></svg>