<svg height="345" viewBox="0 0 345 345" width="345" xmlns="http://www.w3.org/2000/svg" xmlns:xlink="http://www.w3.org/1999/xlink"><linearGradient id="a"><stop offset="0" stop-color="#ea2027"/><stop offset="1" stop-color="#322cbe"/></linearGradient><linearGradient id="b" x1="117.742475%" x2="117.742475%" xlink:href="#a" y1="19.235973%" y2="81.125664%"/><linearGradient id="c" x1="-9.695589%" x2="-9.695589%" xlink:href="#a" y1="19.876931%" y2="80.908161%"/><path d="m177.948764-1.26732673c8.117894 0 15.578915 3.06731963 21.219302 8.15264734 5.640528 5.08545469 9.460338 12.18900749 10.295681 20.26134319l24.122909 233.1115102c.900291 8.699947-1.812133 16.941078-6.925361 23.232215-5.113096 6.290974-12.626891 10.63205-21.329493 11.532023-1.083098.112008-2.171251.168123-3.260123.168123l-120.9265844.000556c1.659328 2.437778 3.6104317 4.768586 5.8524897 7.000261 1.7360804 1.72804 2.6071134 3.99595 2.6120102 6.26571s-.8563431 4.541406-2.5849518 6.276917c-1.7284464 1.735348-3.9968715 2.606085-6.2671829 2.610979-2.2703104.004895-4.5424707-.856052-6.278388-2.58393-16.0332525-15.958998-21.4773502-36.303998-16.1933999-60.065604 2.0522978-9.229059 5.6156357-17.213989 11.0088278-26.062641l7.8030633-12.821485 1.4344811-2.473711.5735547-1.06855.3857931-.808295-.4821167-1.8361c-.7199387-.94188-1.7848871-1.894428-3.3271716-2.963928-3.2033257-2.221353-7.1594013-2.217831-11.4336574-.488352-4.738273 1.917233-9.8539905 5.925585-14.9049537 11.616047l-1.6940945 1.975442c-3.9239901 4.731779-7.7684787 10.460999-11.3201167 17.019899l-1.5156815 2.885067c-4.9685357 9.749122-9.2684605 21.153893-12.2666507 33.723962l-.5610375 2.383694-1.0386862 4.605938c-.3275311 1.498549-.636725 2.961779-.9257106 4.380051l-.8200532 4.18851c-.6333712 3.379459-1.1531733 6.537433-1.5596981 9.4717l-.4346603 3.424144c-.4386143 3.827874-.6583318 7.218311-.6583318 10.165275 0 2.889867.1956528 5.104175.4749472 6.717547.2375647 1.372317.3201001 2.480918.6014675 2.610357 2.2254752 1.023799 3.8251094 2.85246 4.6123794 4.981315.7873181 2.128986.7621926 4.558225-.2619995 6.783093-1.024119 2.22471-2.8532934 3.82388-4.9828398 4.610888-2.1294164.78696-4.5591459.761838-6.7844625-.261888-5.41513925-2.491158-8.85711333-7.246587-10.44535354-14.496161-1.5563846-7.104169-1.3143066-16.670475.52567608-28.83059l.55225681-3.448299.63360829-3.586984.71283982-3.720996c.12530207-.631229.25386861-1.268163.38722516-1.91826l.82754842-3.915371.90521767-4.058857.98087224-4.19902.88516495-3.550591c.30783898-1.183467.6265637-2.359203.95583387-3.526786l1.01171907-3.453575c1.04742117-3.445663 2.18632616-6.814525 3.40757356-10.095297l1.2422977-3.235688c1.4881023-3.759826 3.0842764-7.394575 4.7739601-10.886342l1.4636542-2.943409c2.9896715-5.851728 6.2428854-11.267511 9.6857827-16.157427l1.7335764-2.396437 1.7637146-2.307206c4.6850308-5.960286 9.658074-10.96098 14.7495889-14.804499l17.464854-168.7749442c.8353437-8.0723357 4.6551532-15.1758885 10.2956812-20.26134319 5.6403872-5.08532771 13.101408-8.15264734 21.219302-8.15264734zm-82.0083022 17.73757793c-3.4247806.0000001-6.5842351 1.2409436-9.0263711 3.3159167-2.4507964 2.0823317-4.1795298 5.0044525-4.7289237 8.35528l-.1128003.8487684-16.3883352 158.3681827c6.9624295-1.070531 13.7933682.347118 20.110521 4.72776 3.2610204 2.261362 5.7970809 4.639587 7.6594051 7.236651 2.3478484 3.274141 3.5322197 6.668908 3.719687 10.195873.1941304 3.652322-.688447 7.457424-2.5162712 11.429537-.5780856 1.25626-1.2278311 2.505581-2.0176555 3.885085l-1.2765587 2.148918-5.3995959 8.442622-1.5202855 2.441867c-4.4330907 7.274186-7.2566011 13.567171-8.8378596 20.677995-1.5143982 6.810158-1.9114332 13.095655-1.1734317 18.90882l127.6396805-.00057c.479133 0 .957941-.024692 1.434524-.073977 3.681495-.380719 6.879559-2.160906 9.120127-4.757701 2.249761-2.607451 3.534682-6.038081 3.373589-9.701832l-.06352-.854218-24.121024-233.0932986c-.352428-3.405689-1.912255-6.4194531-4.22805-8.6341848-2.32021-2.2189538-5.399129-3.6362051-8.78298-3.8415996z" fill="url(#b)" fill-rule="evenodd" stroke="url(#c)" stroke-linecap="round" stroke-width="2.534653" transform="translate(56 4)"/></svg>