<svg height="1206" viewBox="0 0 1168 1206" width="1168" xmlns="http://www.w3.org/2000/svg" xmlns:xlink="http://www.w3.org/1999/xlink"><defs><circle id="a" cx="339.5" cy="339.5" r="339.5"/><mask id="b" fill="#fff"><use fill="#fff" fill-rule="evenodd" xlink:href="#a"/></mask></defs><g fill="none" fill-rule="evenodd" transform="translate(2 2)"><path d="m619 1200.30044c-24.8-5.4-42.5-23.7-49.5-51-5.7-21.9-2.4-64.1 7.9-104.4 2.7-10.2 7.1-27.4 9.9-38.1 5.5-21.400001 7.6-32.800001 9.2-49.500001 4.5-49.3-6-89.2-29.3-111.2-17.7-16.7-39.8-23.4-70.8-21.2-28.8 2-49.5 10.8-68 28.9-19.2 18.9-28.3 36.3-47.6 91.9-4.7 13.5-10.6 29.3-13.2 35.1-14.7 33.000001-33.6 48.000001-60.3 48.000001-10.9 0-16.5-1.9-23.1-8-10.1-9.3-14.3-21.400001-13.3-38.500001 1.1-18.9 7-34.8 18.9-50.5 8.3-10.9 17.6-19.8 41-38.9 36.1-29.6 45.6-43.4 45.7-66.6 0-17.2-3.9-27.5-14.7-38.1-10.1-10.1-26.5-17.4-48.6-21.9-15.9-3.1-33.4-5-64.7-7-59-3.7-77.4-7.7-86.5-18.9-2.8-3.5-3-4.4-3-11.9 0-10.1 2.2-15.1 10.4-23.9 7.2-7.8 16.4-14.8 40.1-30.3 24.3-15.9 33.6-22.9 43-32.4 8.8-8.9 14.5-17.1 17.9-26.1 2.4-6 2.6-7.7 2.5-21.5-.1-13.2-.4-16.1-2.8-23.8-12.3-41-45.5-60.9-118.1-71.1-6-.9-22-2.7-35.5-4.1s-29.9-3.3-36.5-4.1c-45.9-5.7-68-15-77.2-32.5-2.6-4.9-2.8-6.3-2.8-15.9 0-9 .3-11.1 2.3-14.7 4.8-9.1 12.6-14.4 26.9-18.5 6.7-1.9 10.2-2.3 23.8-2.2 22.3 0 30.5 2.3 74.4 21 30.7 13.2 47.5 19.4 62.1 23.3 21 5.5 28.7 6.5 50.5 6.5 17.4 0 21.2-.2 28.9-2.2 25.4-6.4 42.5-19.1 52.2-38.7 6-12.4 7.7-20.7 7.7-38.5-.1-24.3-4.2-43-14.2-63.5-16.4-33.7-37-53.9-102.5-100.6-50.2-35.7-73.5-59-87.5-87.4-10.4-21.1-14.6-40.6999998-13.8-64.4999998.3-12.1.9-15.8 3.1-22.7 6.2-19 20.6-32.39999999 40.8-37.89999999 7.7-2.1 24.8-2.9 35-1.5 42.3 5.7 71.4 29.69999999 95.3 78.59999999 10.5 21.5999998 16.2 36.6999998 34.9 93.4999998 17 51.6 26.2 76.4 35.6 95 29.4 58.8 66 85.4 120.5 87.7 23.3 1 46-3 63.3-11.2 32.5-15.4 52.3-43.3 64.2-90 5.1-20 8.2-39.8 13-83.5 5.8-52.4 9.7-72.2999998 17.2-87.4999998 5.8-11.8 12.9-18.9 22.6-22.6 5.1-1.9 7.1-2.1 18.7-1.6 10.3.4 14.6 1 21 3 21.2 6.9 35.3 21.8 39 41.2999998 1.9 9.5 1.9 14.1 0 22.8-2.2 10.3-7.2 19.3-21.4 38.5-7.1 9.6-15.2 21.3-18 25.9-14.2 23.8-19.6 51.4-17.3 87.9 2 31.6 6.4 50.8 16.2 70.8 9.4 19.4 21.1 31.5 38.5 40 13.5 6.6 22.7 8.6 43.5 9.2 40.9 1.3 92.4-4.9 126.4-15.2 40.4-12.3 63.3-25.4 112.6-64.6 36-28.6 58.6-37.9 91.9-37.9 8.7 0 14.5.5 18.2 1.6 17.9 5.3 30.3 18.6 35.6 38.4 2.5 9 2.4 30.9-.1 39.9-6.8 24.8-25.5 41.1-59.6 51.9-14.8 4.7-30.2 7.8-74.5 15.2-59.9 10-85 16.4-109.4 28.1-26.9 12.8-47.8 32.3-59.4 55.4-20.2 40.4-20.7 103.9-1.1 146.3 8.5 18.5 24.7 37.6 43 50.8 10.5 7.6 36.4 20.6 51.9 26.3 6.1 2.2 24.2 8 40.3 13 39.5 12.3 51.6 17.3 63.1 25.9 6.8 5.1 10.5 9.6 13.9 16.9 2.5 5.3 2.7 6.8 2.6 17.3-.1 13.7-1.8 21.1-7.7 32.5-12.1 23.2-37.2 35.6-69.2 34.3-13-.6-21.7-3.5-33.6-11.4-10.6-6.9-29-25.9-47.5-48.9-19.8-24.5-29-34.9-38-42.7-21.8-18.8-33.7-21.8-74.9-18.7-75.9 5.6-114.9 31-133.5 86.8-7.5 22.3-11 49.1-11 83.1 0 38.3 3.8 54.6 22.5 96.500001 17.9 40.2 22.8 61.3 22.9 99 .1 15.8-.2 19-2.2 26.3-4.6 17-11.5 28.6-23.6 39.9-15.5 14.4-36.6 20.3-57.1 15.8z" fill="#ecf0f1" fill-rule="nonzero" transform="matrix(1 0 0 -1 0 1201.78061)"/><g transform="translate(242 301)"><use fill="#29f1c3" xlink:href="#a"/><path d="m518.7575 158 .5386.710384c10.579594 13.953902 17.309546 30.441286 19.516592 47.812761 5.048265 39.734462 10.283201 81.22008 15.704808 124.456855 10.15 79.42 60.4825 489.58 60.4825 489.58h-553s25.7075-203.44 45.6175-360.39c11.843791-93.364289 22.625984-177.776651 32.346578-253.237085 2.271304-17.632009 9.201963-34.339785 20.078094-48.402371l.410328-.530544c10.73194-13.876149 27.285044-22 44.827052-22h269.189572c17.3918 0 33.780868 8.141177 44.288376 22zm-353.72 46.65c0-.65-51.68 488.53-51.68 488.440055 0-.060037 150.69-.090055 452.07-.090055-34.706667-325.993333-52.06-488.993333-52.06-489 0-.01-348.33 1.3-348.33.65zm149.959891 61.101958c46.197382-6.949146 93.365362 6.940503 131.594699 38.712965 15.560047 12.904322 30.246048 28.946131 31.801036 34.737085 1.554988 5.955176.096552 12.238794-4.085656 17.035779-2.820322 3.310352-4.37531 3.803015-9.23846 3.310352-5.061334-.501307-6.712874-1.659497-13.131012-8.937085-53.296463-61.047036-134.120285-71.626332-197.534336-25.972865-9.7263 7.113367-16.047886 13.068543-33.747312 31.599598-3.013425 3.146131-4.670047 3.638794-9.822851 3.146131-5.544093-.501307-6.519772-.99397-8.948806-5.790955-5.249356-10.086633-3.790919-15.384925 8.171311-28.781909 27.913566-31.271156 67.20497-53.268141 104.941387-59.059096zm-5.077676 58.326188c6.81227-1.823719 15.078502-2.316382 31.626217-1.979297 19.557314.492664 23.83786 1.158191 34.249448 4.961206 21.402728 7.770252 39.699264 20.017689 55.458993 37.053468 7.102045 7.934472 10.020137 13.396985 10.020137 19.352161 0 4.632763-4.865181 12.083216-8.952543 13.73407-5.637915 2.480603-10.21332.501306-17.02559-7.277588-13.522864-15.384925-31.717725-27.295276-50.400628-33.086231-13.527948-4.304322-40.090716-4.304322-53.516988 0-18.779496 5.790955-36.877764 17.701306-50.400628 33.086231-6.807186 7.770251-11.382591 9.758191-17.025591 7.277588-4.087361-1.659498-8.952542-9.101307-8.952542-13.73407 0-5.790955 2.8215-11.417689 9.633769-18.859498 18.677821-20.346131 40.670267-33.907337 65.285946-40.52804zm12.602099 58.488746c23.621413-4.961206 48.60394 1.98794 67.65445 19.015076 9.720788 8.772864 13.804128 15.384924 13.804128 22.169849 0 7.441809-4.474406 14.226733-10.497841 15.713367-3.697353.993969-5.251461.492663-9.527795-3.310352-2.717148-2.480603-7.968608-6.940503-11.467889-10.086633-19.243503-16.707337-49.375914-16.534473-68.528.501306-3.692274 3.301709-8.745662 7.770251-11.274895 10.086633-5.83552 5.134071-11.955452 4.140101-16.526356-2.809045-4.469327-6.784924-4.179837-13.898291.777054-21.3401 8.359675-12.238794 30.132411-26.629749 45.587144-29.940101z" fill="#36d7b7" fill-rule="nonzero" mask="url(#b)"/></g></g></svg>