<svg xmlns="http://www.w3.org/2000/svg" xmlns:xlink="http://www.w3.org/1999/xlink" width="67" height="67" style="background:#fff"><defs><path id="a" d="M12.06.81h4.588V3.6a.5.5 0 0 0 .5.5h6a.5.5 0 0 0 .5-.5V.81h4.589a6 6 0 0 1 5.968 5.382l4.758 46a6 6 0 0 1-5.968 6.618H7.301a6 6 0 0 1-5.968-6.618l4.758-46A6 6 0 0 1 12.06.81z"/><path id="c" d="M12.06.81h4.588V3.6a.5.5 0 0 0 .5.5h6a.5.5 0 0 0 .5-.5V.81h4.589a6 6 0 0 1 5.968 5.382l4.758 46a6 6 0 0 1-5.968 6.618H7.301a6 6 0 0 1-5.968-6.618l4.758-46A6 6 0 0 1 12.06.81z"/></defs><g fill="none" fill-rule="evenodd"><g transform="translate(-173 12)"><path fill="#FFF" stroke="#000" stroke-width="2" d="M27.54 11.13l13.658 3.981a3.987 3.987 0 0 1 2.388 1.917 3.987 3.987 0 0 1 .085 3.682c-.877 1.793-1.98 3.258-3.316 4.388-.925.783-1.926 1.17-3.013 1.126l-4.577-.183 10.491 5.328a3.987 3.987 0 0 1 2.003 2.315 4 4 0 0 1-1.245 4.34l-4.151 3.44-5.938-12.62-9.135 19.021-17.844 5.368L27.54 11.13z"/><g transform="translate(5.352)"><mask id="b" fill="#fff"><use xlink:href="#a"/></mask><use fill="#00FFB5" xlink:href="#a"/><g mask="url(#b)"><g transform="translate(-10 -8)"><path fill="#1E3799" transform="rotate(-25 33.11 48.648)" d="M9.61 33.148H56.61V64.148H9.61z"/><path fill="#EA2027" transform="rotate(-25 25 22)" d="M5 8H45V36H5z"/></g></g></g><path stroke="#000" stroke-width="3" d="M20.5 2.31v2.68l9.274.713.515-3.393h3.3a4.49 4.49 0 0 1 3.013 1.158 4.49 4.49 0 0 1 1.463 2.879l4.758 46a4.486 4.486 0 0 1-.983 3.3 4.486 4.486 0 0 1-3.03 1.639l-26.157.024a4.486 4.486 0 0 1-3.182-1.318 4.486 4.486 0 0 1-1.318-3.182l4.782-46.463a4.49 4.49 0 0 1 1.463-2.879A4.49 4.49 0 0 1 17.41 2.31H20.5z"/><path fill="#000" d="M21 0.81H30V4.8100000000000005H21z"/><g fill="#000"><path d="M27.796 49.81h10.082a2.878 2.878 0 0 0 2.868-3.111l-.05-.609 1.661 10.602H27.796V49.81z"/><path d="M27.796 49.81H12.479A2.878 2.878 0 0 1 9.611 46.7l.05-.609v8.005l2.26 3.062h15.875v-7.346z"/></g><path fill="#FFF" fill-rule="nonzero" d="M25.366 35.31c4.467 0 6.634-2.205 6.634-4.785 0-5.667-9.091-3.704-9.091-6.549 0-.97.849-1.686 2.993-1.686.738 0 1.75.272 3.037.817a1.2 1.2 0 0 0 1.538-.56l.25-.491a1.2 1.2 0 0 0-.605-1.65c-1.736-.73-3.143-1.096-4.22-1.096-4.445 0-6.59 2.219-6.59 4.843 0 5.733 9.092 3.748 9.092 6.637 0 .948-.871 1.653-3.016 1.653-1.039 0-2.401-.37-4.088-1.11a1.2 1.2 0 0 0-1.574.6l-.22.481a1.2 1.2 0 0 0 .634 1.608c2.08.858 3.822 1.288 5.226 1.288z"/><path fill="#FFF" stroke="#000" stroke-linecap="round" stroke-width="2" d="M1.23 65.81c-1.64-.755-1.64-4.574 0-11.457 2.462-10.323 11.522-20.91 15.605-18.077 4.084 2.832-3.774 9.013-5.143 15.173-.913 4.106-.006 7.517 2.72 10.233"/><g font-family="Inter-Bold, Inter" font-weight="bold" transform="translate(62 15)"><text fill="#000" font-size="18" letter-spacing=".5"><tspan x="0" y="26">Sticky</tspan></text><text fill="#6C7A89" font-size="8" letter-spacing="1"><tspan x="0" y="8">POWERED BY</tspan></text></g></g><g transform="translate(8)"><path fill="#FFF" stroke="#000" stroke-width="2" d="M27.54 11.13l13.658 3.981a3.987 3.987 0 0 1 2.388 1.917 3.987 3.987 0 0 1 .085 3.682c-.877 1.793-1.98 3.258-3.316 4.388-.925.783-1.926 1.17-3.013 1.126l-4.577-.183 10.491 5.328a3.987 3.987 0 0 1 2.003 2.315 4 4 0 0 1-1.245 4.34l-4.151 3.44-5.938-12.62-9.135 19.021-17.844 5.368L27.54 11.13z"/><g transform="translate(5.352)"><mask id="d" fill="#fff"><use xlink:href="#c"/></mask><use fill="#00FFB5" xlink:href="#c"/><g mask="url(#d)"><g transform="translate(-10 -8)"><path fill="#1E3799" transform="rotate(-25 33.11 48.648)" d="M9.61 33.148H56.61V64.148H9.61z"/><path fill="#EA2027" transform="rotate(-25 25 22)" d="M5 8H45V36H5z"/></g></g></g><path stroke="#000" stroke-width="3" d="M20.5 2.31v2.68l9.274.713.515-3.393h3.3a4.49 4.49 0 0 1 3.013 1.158 4.49 4.49 0 0 1 1.463 2.879l4.758 46a4.486 4.486 0 0 1-.983 3.3 4.486 4.486 0 0 1-3.03 1.639l-26.157.024a4.486 4.486 0 0 1-3.182-1.318 4.486 4.486 0 0 1-1.318-3.182l4.782-46.463a4.49 4.49 0 0 1 1.463-2.879A4.49 4.49 0 0 1 17.41 2.31H20.5z"/><path fill="#000" d="M21 0.81H30V4.8100000000000005H21z"/><g fill="#000"><path d="M27.796 49.81h10.082a2.878 2.878 0 0 0 2.868-3.111l-.05-.609 1.661 10.602H27.796V49.81z"/><path d="M27.796 49.81H12.479A2.878 2.878 0 0 1 9.611 46.7l.05-.609v8.005l2.26 3.062h15.875v-7.346z"/></g><path fill="#FFF" fill-rule="nonzero" d="M25.366 35.31c4.467 0 6.634-2.205 6.634-4.785 0-5.667-9.091-3.704-9.091-6.549 0-.97.849-1.686 2.993-1.686.738 0 1.75.272 3.037.817a1.2 1.2 0 0 0 1.538-.56l.25-.491a1.2 1.2 0 0 0-.605-1.65c-1.736-.73-3.143-1.096-4.22-1.096-4.445 0-6.59 2.219-6.59 4.843 0 5.733 9.092 3.748 9.092 6.637 0 .948-.871 1.653-3.016 1.653-1.039 0-2.401-.37-4.088-1.11a1.2 1.2 0 0 0-1.574.6l-.22.481a1.2 1.2 0 0 0 .634 1.608c2.08.858 3.822 1.288 5.226 1.288z"/><path fill="#FFF" stroke="#000" stroke-linecap="round" stroke-width="2" d="M1.23 65.81c-1.64-.755-1.64-4.574 0-11.457 2.462-10.323 11.522-20.91 15.605-18.077 4.084 2.832-3.774 9.013-5.143 15.173-.913 4.106-.006 7.517 2.72 10.233"/></g></g></svg>