<svg height="183" viewBox="0 0 182 183" width="182" xmlns="http://www.w3.org/2000/svg" xmlns:xlink="http://www.w3.org/1999/xlink"><defs><rect id="a" height="182" rx="91" width="182" y=".293408"/><mask id="b" fill="#fff"><use fill="#fff" fill-rule="evenodd" xlink:href="#a"/></mask></defs><g fill="none" fill-rule="evenodd" transform="translate(0 .406592)"><use fill="#fff" xlink:href="#a"/><g mask="url(#b)"><g transform="translate(-113.4 -24.5)"><path d="m196.894167.40033107 251.805833-.10692335v298.90000028h-242.9z" fill="#1e3799" fill-rule="evenodd"/><path d="m0 .29340772h184.1l-12.6 273.70000028-171.5 25.2z" fill="#f00" fill-rule="evenodd"/><path d="m268.45 104.789408 6.811 17.101 7.105-17.101h6.664l-15.435 35.084h-6.664l4.669-11.13-9.961-23.954zm-47.082-.588c3.103333 0 5.716667.8085 7.84 2.4255s3.479 3.8465 4.067 6.6885h-6.615l-.081038-.266891c-.34677-1.049586-.964924-1.883455-1.854462-2.501609-.963667-.669667-2.098833-1.0045-3.4055-1.0045-1.731333 0-3.201333.653333-4.41 1.96-1.208667 1.306666-1.813 3.119666-1.813 5.439 0 2.319333.604333 4.132333 1.813 5.439 1.208667 1.306666 2.678667 1.96 4.41 1.96 1.306667 0 2.441833-.326667 3.4055-.98.963667-.653334 1.608833-1.584334 1.9355-2.793h6.615l-.08494.370841c-.627889 2.5725-1.955242 4.653886-3.98206 6.244159-2.123333 1.666-4.736667 2.499-7.84 2.499-2.482667 0-4.671333-.539-6.566-1.617s-3.389167-2.580667-4.4835-4.508c-1.094333-1.927334-1.6415-4.132334-1.6415-6.615 0-2.482667.547167-4.687667 1.6415-6.615 1.094333-1.927334 2.588833-3.43 4.4835-4.508s4.083333-1.617 6.566-1.617zm-82.985 0c2.874667 0 5.1695.669666 6.8845 2.009 1.715 1.339333 2.735833 3.185 3.0625 5.537h-5.929l-.042313-.189063c-.415125-1.670625-1.756687-2.505937-4.024687-2.505937-1.176 0-2.0825.228666-2.7195.686-.637.457333-.9555 1.029-.9555 1.715 0 .718666.473667 1.290333 1.421 1.715.947333.424666 2.205.816666 3.773 1.176 1.698667.392 3.2585.824833 4.6795 1.2985 1.421.473666 2.556167 1.176 3.4055 2.107s1.274 2.262166 1.274 3.9935c.032667 1.502666-.359333 2.858333-1.176 4.067-.816667 1.208666-1.992667 2.156-3.528 2.842s-3.348333 1.029-5.439 1.029c-2.156 0-4.050667-.351167-5.684-1.0535-1.633333-.702334-2.94-1.674167-3.92-2.9155-.98-1.241334-1.568-2.678667-1.764-4.312h6.321l.055976.233941c.230821.847178.742996 1.577698 1.536524 2.191559.865667.669666 1.9845 1.0045 3.3565 1.0045s2.3765-.277667 3.0135-.833c.637-.555334.9555-1.192334.9555-1.911 0-1.045334-.457333-1.755834-1.372-2.1315-.914667-.375667-2.188667-.743167-3.822-1.1025-1.045333-.228667-2.107-.506334-3.185-.833-1.078-.326667-2.066167-.743167-2.9645-1.2495-.898333-.506334-1.625167-1.159667-2.1805-1.96-.555333-.800334-.833-1.7885-.833-2.9645 0-2.156.8575-3.969 2.5725-5.439s4.124167-2.205 7.2275-2.205zm104.65-10.3880003v20.8250003l8.624-9.849h7.448l-9.947 11.074 11.564 13.23h-7.84l-9.849-12.201v12.201h-6.272v-35.2800003zm-81.711 4.459v6.5170003h6.566v5.243h-6.566v10.633c0 1.176.253167 1.9845.7595 2.4255s1.380167.6615 2.6215.6615h3.038v5.341h-4.263c-2.548 0-4.589667-.620667-6.125-1.862-1.535333-1.241334-2.303-3.446334-2.303-6.615v-10.584h-4.165v-5.243h4.165v-6.4960003z" fill="#fff" fill-rule="nonzero"/></g></g></g></svg>