<svg height="484" viewBox="0 0 350 484" width="350" xmlns="http://www.w3.org/2000/svg"><g fill="none" fill-rule="evenodd"><path d="m258.342282 1c4.234644 0 8.331319.57455983 12.120793 1.61553972 3.798795 1.04353534 7.297136 2.5580686 10.31976 4.43701827 3.035985 1.88723064 5.597134 4.14529181 7.501067 6.66664051 1.915185 2.5361484 3.167698 5.3417332 3.56807 8.3063219l55.711873 412.4823766c.87584 6.484484.410555 12.723192-1.197452 18.450148-1.622211 5.777681-4.404682 11.024891-8.135824 15.464151-3.756521 4.469252-8.464944 8.108366-13.897669 10.635045-5.453394 2.536141-11.618132 3.942759-18.249708 3.942759h-264.1663928c-6.6315887 0-12.7962859-1.406618-18.2497263-3.942759-5.4327268-2.526679-10.1411913-6.165793-13.89760284-10.635045-3.73117952-4.43926-6.51364587-9.68647-8.13586198-15.464151-1.60798364-5.726956-2.07328933-11.965664-1.19747714-18.450148l55.71186986-412.4823766c.4004056-2.9645887 1.6529314-5.7701735 3.5680853-8.3063219 1.9039813-2.5213487 4.4651685-4.77940987 7.501093-6.66664051 3.0226541-1.87894967 6.5210408-3.39348293 10.3197755-4.43701827 3.7894739-1.04097989 7.8861333-1.61553972 12.1207618-1.61553972z" fill="#fff"/><g transform="translate(25 15.95996)"><path d="m136.277382 2.19278765h111.532846l51.632145 427.12605535h-170.408937z" fill="#1e3799"/><path d="m52.1897709 2.19278765h81.7518281l-8.476932 427.12605535h-124.90706119z" fill="#f00"/><g fill="#fff"><path d="m112.991757.62088612h23.312284l-7.333125 432.38555688h-35.7942012z"/><path d="m56.9138347 187.728358c-.8619432 0-1.695-.029061-2.4990815-.087187-.8039952-.058065-1.5789696-.145284-2.3248103-.261444-.7456632-.116162-1.4621496-.2613-2.1494087-.435381-.687012-.174053-1.3447416-.377081-1.97316-.608996-.6280943-.231768-1.2210191-.485712-1.7787311-.761688-.5574168-.2758-1.0795895-.573633-1.5665471-.893467-.4866504-.319658-.9380856-.661171-1.35432-1.024658-.4158984-.363163-.7966415-.748212-1.1421839-1.155-.3452328-.406406-.6495264-.828545-.912876-1.266358-.2630712-.437344-.4853016-.890332-.6666504-1.358877-.1811999-.468106-.3215903-.951679-.4212743-1.450692-.0995952-.498516-.1585248-1.012442-.1768656-1.541662h9.9979988c.0463176.306886.1269287.602696.2418455.887463.1149912.284882.2643456.558691.44808.821337.18384.262851.402072.514512.6547272.755009.2527896.240557.5400288.47004.8617104.688214.3218399.218319.6716303.409424 1.0493687.57331.3778272.163858.783588.300528 1.2172416.409834.4337543.109365.8953415.191426 1.3847759.246122.4894776.054698 1.006728.082061 1.5517223.082061.5449944 0 1.0555824-.022704 1.5317592-.068086.4761168-.04535.9177959-.113378 1.3249511-.204081.4071096-.090675.7797072-.203996 1.1177784-.33996.337968-.135939.6414096-.294406.9103103-.47552.2687856-.181082.5065152-.368728.7131312-.562939.2065584-.19409.3820608-.394805.5264928-.602049.1443624-.207219.257712-.420939.3400656-.641191.0823224-.220196.1336368-.446895.1540272-.680098.029604-.338995.011616-.650714-.0539496-.935098-.065508-.284181-.1785648-.541113-.339096-.770889-.1604448-.229687-.3683808-.432187-.62376-.607589-.2552784-.175313-.5580192-.323614-.9082032-.444814-.3196583-.110596-.6688487-.220723-1.0475687-.330235-.3786048-.109452-.7867392-.218378-1.2243456-.326688-.4375343-.108281-.9045719-.216036-1.4010359-.323203-.4963776-.107138-1.022256-.213691-1.5775343-.319658l-.6473424-.12091c-.4048992-.073562-.8109816-.151025-1.2181944-.23244-.4071815-.081386-.8155079-.166728-1.2249743-.255938-.4093944-.089208-.8199336-.182374-1.2316128-.279432-.4115903-.097032-.8242967-.197991-1.2381743-.302873-.4137744-.104825-.8178648-.216854-1.2123048-.336094-.3943487-.11915-.7790015-.245508-1.1539871-.379012-.3749136-.133476-.7400976-.274102-1.0956168-.421906-.3553991-.147715-.7011167-.302606-1.0371527-.464647-.335904-.161955-.6536136-.335597-.9531288-.520987-.2993712-.185273-.580548-.382179-.8435159-.590801-.2628816-.208505-.50748-.428614-.7339752-.660411-.226332-.23165-.434472-.474842-.6244344-.729695-.1898712-.254679-.3508152-.524122-.482796-.808361-.1319544-.284091-.2349912-.582948-.3091559-.896455-.0741504-.313359-.1194144-.641338-.1359096-.984022-.0164496-.342394-.0041592-.699434.0368856-1.071007.0751464-.680537.2308295-1.333066.4668599-1.95775.2357232-.623875.5516472-1.220008.9476088-1.788631.3955224-.567876.8709504-1.108286 1.4261999-1.62132.5546784-.51246 1.1890584-.997704 1.9031112-1.455703.7133495-.457586 1.4872703-.857606 2.3218199-1.200233.8339663-.342379 1.7286623-.627494 2.6841958-.855499.9550776-.227885 1.9711656-.3987 3.0484415-.512563 1.0769976-.113832 2.2154159-.170683 3.4153847-.170683 1.1115527 0 2.1622415.051811 3.152287.155551.9902184.103726 1.9199544.259337 2.7893399.466949.869736.207672 1.679208.467417 2.4285647.779253.7498248.312084 1.4395896.676421 2.0693255 1.09314.6302784.417084 1.1904936.87397 1.68066 1.37083.490692.497402.9112199 1.034853 1.2615383 1.612557.350784.578424.6311856 1.197262.8412144 1.856676.210336.660365.3500832 1.361528.4191648 2.103646h-9.260258c-.0902352-.56701-.2837256-1.062626-.5804304-1.486992-.296424-.423984-.6959904-.77707-1.198608-1.059346-.502308-.282098-1.1077439-.493562-1.8163463-.634512-.7083984-.140887-1.5200975-.211317-2.4352751-.211317-.4575864 0-.8906544.017959-1.2992423.053817-.408648.035832-.7928472.089621-1.1525832.161355-.3597936.071748-.6951864.161455-1.0061711.26909-.3110592.107667-.5977296.233321-.8600112.376978-.2623536.143657-.4946616.296397-.6969288.458131-.202308.16182-.3745752.33265-.51678.512534-.1422216.179969-.2543568.369022-.3364031.567159-.0820608.198163-.1339896.405497-.1558008.621854-.0228216.226874.0017448.44215.0737568.645967.0720096.203878.1914983.396211.3584759.577032.1670352.18085.3815904.350127.64368.507859.2622072.157824.5719056.303956.9292248.438576.3233352.121757.6718223.241464 1.0454735.359091.3736968.117597.7726032.233203 1.196616.346581.4241448.113496.8734583.224854 1.3479191.334191.4746096.109305.9743712.216504 1.4993136.321621l.6766103.131688c.654096.12463 1.294452.25254 1.9210992.383703.6268055.131249 1.2398879.265781 1.8392279.403593.5995152.137842 1.1852927.278964 1.7573735.423399.5722248.144463 1.1307408.292264 1.6755167.443349.5449512.151114 1.060488.320508 1.5466416.508243.4862975.187822.9432551.393984 1.3708007.618428.4277784.224618.8261568.467635 1.195164.729052.3692159.261591.7090583.541611 1.0195319.840176.3002784.288751.559308.607704.7771008.956894.2179248.349423.3945552.729257.5298624 1.139443.1354104.410537.2294376.851544.2820552 1.323194.052632.47209.06378.974883.0333552 1.508496l-.0149712.222684c-.024696.487325-.0905712.963195-.1976664 1.427549-.1071672.464854-.2556288.918137-.4453848 1.359845-.1899456.442118-.4212888.872637-.694044 1.291524-.2730024.419237-.5875344.826785-.9435336 1.222646-.3563399.396123-.7469687.771211-1.1719775 1.125058-.4252896.35417-.884928.687069-1.3789463.998671-.4943112.311808-1.0230024.602345-1.5860448.871437-.5633496.269297-1.1610791.517119-1.7930999.743525-.632316.226524-1.2902352.424805-1.9736711.594814-.6836448.170126-1.392804.311865-2.1273791.425333-.7347216.113467-1.4947992.198602-2.2801751.25535-.7854648.056779-1.5961536.085166-2.4319775.085166zm35.9589081-.777919c-1.0178592 0-1.9821072-.051329-2.8925975-.153866-.910296-.102511-1.7666591-.256291-2.5690415-.461223-.8019888-.204813-1.5498479-.46078-2.2434671-.767695-.6932232-.306797-1.3321296-.664394-1.9167047-1.072821-.5840904-.408077-1.0858584-.894932-1.5053304-1.460304-.4189752-.564725-.7556855-1.207615-1.0102607-1.928379-.2541936-.719707-.4263408-1.516845-.5166648-2.390947-.0901608-.872606-.0987-1.821708-.025884-2.846834l.9584784-13.494316h-6.4906654l.5089608-6.548364h6.4468365l.6285192-7.991676 9.5682428-.025605-.488628 8.017281h10.1632456l-.329971 6.548364h-10.2323418l-.8262599 13.557714c-.0232032.380244-.0195408.731045.0109272 1.052343.0304992.321504.0879048.613447.1721784.875743.0843168.262382.1955568.495118.33372.698086.1381944.203056.3033407.376317.4954391.519727.1921152.143496.4217592.269061.6889752.376699.267276.107724.5720952.197489.9144.269265.3423912.071837.7223135.125715 1.1397215.161662.4174512.035918.8723568.053818 1.364736.053818h4.8201553l-.3549027 7.011328zm64.6828702.777919c-.992549 0-1.955976-.044589-2.890078-.133768-.933986-.089211-1.838556-.222951-2.713595-.401192-.874745-.178214-1.719754-.400898-2.535087-.66791-.814865-.266954-1.599873-.578174-2.354913-.933634-.75451-.355166-1.468447-.745048-2.141777-1.169529-.672773-.424133-1.304911-.882747-1.896386-1.375723-.59089-.492511-1.141171-1.019297-1.65079-1.580187-.509035-.560244-.977462-1.1545-1.405313-1.782655-.427324-.627333-.799687-1.276406-1.117178-1.947158-.316963-.669816-.579257-1.361191-.786826-2.074015-.207304-.711826-.360088-1.444951-.458438-2.199286-.098174-.753223-.142118-1.52754-.131923-2.322832.010135-.794004.073711-1.56457.190545-2.311817.116633-.746102.286407-1.469004.509182-2.168818.222451-.698848.497782-1.374698.82585-2.027724.327684-.652149.708045-1.281503 1.141024-1.888228.432392-.605962.9029-1.177836 1.411493-1.715787.507951-.537391 1.054044-1.040932 1.638194-1.510752.583565-.469363 1.205187-.905155 1.864892-1.307488.659121-.401998 1.356388-.770626 2.091768-1.105987.734853-.335112 1.497657-.628126 2.28838-.87914.790342-.250884 1.60872-.45983 2.455282-.62694.84624-.167064 1.720812-.292324 2.623711-.37582.902841-.083408 1.834159-.125141 2.79413-.125141 1.199971 0 2.353183.062563 3.459902.187778 1.107012.12523 2.167735.313183 3.182403.563863 1.015166.250824 1.984483.564521 2.908067.94122.924375.377036 1.803164.817251 2.636484 1.320864.834228.504171 1.595859 1.056651 2.284863 1.657661.689853.601699 1.307052 1.252164 1.851504 1.951613.545304.700442 1.017772 1.450106 1.417324 2.249208.400167.800479.727325 1.650674.98124 2.550938h-10.352754c-.133769-.372744-.298301-.725129-.493448-1.057267-.195028-.331875-.420703-.643534-.677049-.935038-.256171-.2913-.543017-.562471-.860451-.813544-.317313-.250959-.665155-.481788-1.043728-.692667-.378312-.210732-.772882-.395097-1.183711-.553022-.410655-.157911-.837627-.289455-1.280919-.394659-.443174-.105192-.902666-.184058-1.378565-.23663-.475869-.052574-.968143-.078869-1.476914-.078869-.674061 0-1.322402.051315-1.945106.153869-.622822.102612-1.220069.256582-1.791915.461909-.57208.205445-1.118788.462305-1.640243.770829-.521777.308643-1.01833.668996-1.489776 1.081143-.471826.412557-.885029.86543-1.239581 1.358788-.354931.493916-.651209 1.028379-.88866 1.603654-.237833.575976-.416748 1.19291-.536719 1.850976-.120089.658915-.181114 1.359228-.18296 2.101025-.001845.742939.05587 1.446386.173261 2.110108.117629.664656.295049 1.289412.532471 1.874119.237598.585353.535342 1.130508.893086 1.635264.358183.505313.776544.97002 1.255078 1.394093.478917.424423.984112.796114 1.515441 1.114951.531708.319013 1.089461.585 1.673318.797928.584064.212959 1.194024.372804 1.829885.479386.635916.106553 1.297615.159873 1.984891.159873.518703 0 1.020147-.026661 1.504308-.079951.484099-.053292.950859-.133243 1.400273-.239796.449326-.106521.881249-.239647 1.295683-.399374.414346-.159639.8112-.345821 1.190566-.558574.379219-.212666.726386-.447773 1.041504-.705381.315028-.257403.597979-.537245.848906-.839472.250812-.302021.46957-.626338.656369-.972951.186679-.346375.341395-.714931.464179-1.105663h10.45157c-.20874.88752-.49494 1.732939-.858778 2.536025-.364423.804374-.806661 1.566182-1.326825 2.285186-.52093.720058-1.119934 1.397021-1.797072 2.030859-.678075.634572-1.434317 1.225723-2.268866 1.773251-.835431.548146-1.721955 1.028292-2.659395 1.440236-.938292.412207-1.927296.756004-2.966923 1.03122-1.040215.275361-2.130763.481992-3.271552.619804-1.141143.137813-2.332121.206748-3.572813.206748zm21.607821-.777919-1.307285-44.550994h9.572783l1.017216 25.801317 12.860829-12.375072h11.528407l-14.709813 13.936538 19.325011 17.188211h-12.527491l-16.363504-15.872694.625809 15.872694zm47.442742 14.458915 6.062637-14.921455-17.716991-30.662209h10.54245l12.480965 21.692416 9.059035-21.692416h10.314911l-19.939727 45.583664z"/></g></g><path d="m254.518081 10.3538616c3.992431 0 7.854785.5406888 11.427508 1.5203015 3.581513.9820176 6.879756 2.4072671 9.729492 4.1754502 2.862333 1.775976 5.27699 3.9009215 7.072022 6.2736334 1.80564 2.3866391 2.986512 5.026831 3.363984 7.8166533l52.52527 388.166c.825744 6.102216.387072 11.973143-1.12896 17.362487-1.529424 5.43708-4.152744 10.37496-7.670472 14.552519-3.541656 4.205784-7.980768 7.630368-13.102751 10.008096-5.141472 2.386632-10.9536 3.710328-17.205864 3.710328h-249.0566268c-6.2522758 0-12.0643651-1.323696-17.2058801-3.710328-5.1219862-2.377728-9.5611364-5.802312-13.1026891-10.008096-3.5177638-4.177559-6.1410789-9.115439-7.6705076-14.552519-1.5160104-5.389344-1.9547016-11.260271-1.128984-17.362487l52.5252674-388.166c.3775032-2.7898223 1.5583871-5.4300142 3.3639983-7.8166533 1.7950775-2.3727119 4.2097702-4.4976574 7.0720461-6.2736334 2.8497647-1.7681831 6.1480509-3.1934326 9.729506-4.1754502 3.5727238-.9796127 7.4350629-1.5203015 11.4274795-1.5203015zm-130.737592 9.7723748h-26.3414654c-2.4246671 0-4.7682718.3322848-6.9326949.9338591-2.1676319.6024768-4.1584414 1.4758608-5.8721182 2.5577063-1.7182463 1.0847232-3.1596838 2.3801135-4.221547 3.8233871-1.0656311 1.4483879-1.7497559 3.0467158-1.9473215 4.7311822l-38.8820048 331.5477149c-.3906576 3.331056-.0614208 6.52236.8735592 9.440376.939684 2.932584 2.4903095 5.586311 4.5335158 7.824311 2.0510591 2.246544 4.5955678 4.070856 7.5102837 5.334936 2.9209415 1.266792 6.2081253 1.968456 9.7333436 1.968456h225.5319195c3.525264 0 6.812352-.701664 9.733367-1.968456 2.91468-1.26408 5.459136-3.088392 7.510176-5.334936 2.043264-2.238 3.593856-4.891727 4.533648-7.824311.934896-2.918016 1.264176-6.10932.873552-9.440376l-38.882031-331.5477149c-.197549-1.6844664-.881688-3.2827943-1.947334-4.7311822-1.061894-1.4432736-2.5033-2.7386639-4.221532-3.8233871-1.71372-1.0818455-3.704532-1.9552295-5.872179-2.5577063-2.164365-.6015743-4.507996-.9338591-6.932666-.9338591h-26.341463l.377549 5.9786709c.052589.8324208-.145255 1.6270104-.548613 2.3510687-.404122.7253448-1.014288 1.3796688-1.785293 1.9299743-.772032.5510376-1.704845.9975216-2.752471 1.3063488-1.04833.3090816-2.211034.480072-3.441386.480072h-86.13861c-1.230351 0-2.392968-.1709904-3.441358-.480072-1.047597-.3088272-1.98041-.7553112-2.75244-1.3063488-.770947-.5503055-1.381202-1.2046295-1.785292-1.9299743-.403361-.7240583-.601174-1.5186479-.548643-2.3510687z" fill="#2e3131"/></g></svg>