<svg height="68" viewBox="0 0 48 68" width="48" xmlns="http://www.w3.org/2000/svg" xmlns:xlink="http://www.w3.org/1999/xlink"><linearGradient id="a" x1="117.742%" x2="117.742%" y1="19.236%" y2="81.126%"><stop offset="0" stop-color="#ea2027"/><stop offset="1" stop-color="#322cbe"/></linearGradient><path d="m35.1031742 0c3.0746719 0 5.6517696 2.32425415 5.9681508 5.38260509l4.7586206 46.00000001c.3409778 3.2961186-2.0546372 6.2445679-5.3507558 6.5855457-.2051143.0212187-.411186.0318492-.6173949.0318492l-24.311688.0009619c.3847491.6365144.8630676 1.2382092 1.43516 1.8078393.5870485.5845217.5890968 1.534267.0045751 2.1213154-.5845217.5870485-1.534267.5890968-2.1213154.0045751-3.1013608-3.0880121-4.1483422-7.0255961-3.1267282-11.6212425.3989319-1.7945622 1.0928403-3.3466344 2.1411838-5.067225l1.5406547-2.5323353.2863659-.4939901.1178836-.219693.0822037-.1722856.0369083-.092608.0239427-.0776705.0121339-.0651861.001482-.0551545-.008013-.047576-.0163513-.0424505-.0235326-.0397779-.1222154-.1535912-.0205917-.0278544c-.1343491-.1874152-.3687907-.4061495-.7219142-.6511042-1.4132052-.9803121-3.5008982-.0466046-5.52655525 2.2369276l-.33690882.3929903c-.78419093.9456889-1.55281166 2.0907776-2.26254469 3.4020839l-.30043964.5720683c-.98860564 1.9401713-1.84440329 4.2098881-2.44110286 6.7124091l-.11094139.4715144-.20551304.9116491c-.0648698.2968953-.12610716.5867935-.18371845.8696657l-.16196192.8275099c-.12591363.6719788-.22920388 1.2998657-.30996989 1.8832116l-.08611392.6786067c-.08786748.7666978-.13166519 1.4457432-.13166519 2.035904 0 1.3830875.22350286 2.0060458.35785649 2.0678736.75256467.3463205 1.08189063 1.237143.7355701 1.9897077s-1.237143 1.0818906-1.98970768.7355701c-2.03607396-.9369749-2.5173278-3.6351915-1.81426936-8.2840133l.10845346-.6774072.12432651-.7040688.13995951-.730853c.024616-.1240477.04987337-.2492165.07576712-.3755089l.16295894-.7712594.17799183-.7983503.19278468-.8255639.17385625-.6976048c.06009102-.2310578.12229903-.4606113.18655818-.6885788l.19886504-.6790631c.20488676-.6741418.42764116-1.3332748.6664853-1.9751942l.24414153-.6361c.29093527-.7352318.60296381-1.4460337.93326238-2.1289045l.2875215-.5783959c.5837282-1.1427845 1.21877739-2.2005459 1.89092432-3.1556455l.33909909-.4689129.34488697-.4513127c.9361179-1.1911175 1.93088776-2.1854852 2.94959784-2.9400561l3.45628876-33.41324051c.3163812-3.05835094 2.8934789-5.38260509 5.9681508-5.38260509zm0 3h-1.5889616l-.0048016.17627279c-.0912464 1.57480725-1.3972264 2.82372721-2.9949073 2.82372721h-7c-1.6565199 0-2.9994579-1.34260378-2.9999998-2.9989971l-1.5886706-.0010029c-1.4782077 0-2.7263977 1.07445181-2.9608564 2.51653337l-.023219.17476918-3.2683587 31.58610985c1.4219717-.2998963 2.8217862-.0599946 4.1084554.832542.6168283.4278813 1.0978662.8766904 1.450235 1.3682402.8873107 1.2377866.8803544 2.5673204.2134479 4.0170763-.1108671.2410085-.235513.4806541-.3868706.7451965l-.2486866.4187687-1.0637513 1.6637914-.3013309.4841537c-.8910325 1.4624044-1.4568546 2.7279848-1.774587 4.1572775-.3247358 1.4607975-.3933224 2.8019938-.2048239 4.0361954l25.3963077-.0006541c.1031044 0 .2061403-.0053153.3086974-.0159246 1.5892001-.1644 2.7597349-1.5410747 2.6884506-3.1169117l-.0130726-.1758612-4.7586207-45.99999995c-.1521063-1.47036103-1.3492924-2.60136519-2.8078447-2.68619042z" fill="url(#a)" fill-rule="evenodd" transform="translate(0 .56)"/></svg>