<svg height="67" viewBox="0 0 67 67" width="67" xmlns="http://www.w3.org/2000/svg" xmlns:xlink="http://www.w3.org/1999/xlink"><defs><path id="a" d="m11.192082.55919934 3.455948-.55919934v1.60021741c0 .27614238.2238577.5.5.5h6c.2761424 0 .5-.22385762.5-.5v-1.60021741l3.2275494.54153351c2.6353872.44217776 4.6607186 2.57391028 4.9674989 5.22846726l5.031942 43.54117933c.3804248 3.291799-1.9797104 6.2687246-5.2715095 6.6491493-.2286556.0264252-.4586424.0396706-.6888199.0396706h-21.56791185c-3.3137085 0-6-2.6862915-6-6 0-.2199338.01209271-.4397012.03622337-.6583071l4.8036847-43.51783655c.29586094-2.68028157 2.34345551-4.83393447 5.00539488-5.26465701z"/><mask id="b" fill="#fff"><use fill="#fff" fill-rule="evenodd" xlink:href="#a"/></mask></defs><g fill="none" fill-rule="evenodd" transform="translate(8)"><g transform="translate(7.35197 2)"><use fill="#000" xlink:href="#a"/><g mask="url(#b)"><path d="m10.666426 32.914173h47v36h-47z" fill="#322cbe" transform="matrix(.90630779 -.42261826 .42261826 .90630779 -30.316131 9.209617)"/><path d="m5 8h40v28h-40z" fill="#ea2027" transform="matrix(.90630779 -.42261826 .42261826 .90630779 -18.955296 2.626685)"/></g></g><path d="m33.5886705 2.30977806c1.1530019 0 2.2127087.43579765 3.0138258 1.1583157.801117.72251806 1.3436443 1.73175651 1.4622872 2.87863812l4.7586207 46.00000002c.1278667 1.2360445-.2573778 2.4069009-.9836001 3.300713-.7262222.893812-1.7934223 1.5105796-3.0294668 1.6384462l-26.1576284.023887c-1.2426407 0-2.3676407-.5036797-3.18198056-1.3180195-.81433983-.8143399-1.31801948-1.9393399-1.31801948-3.1819805l4.78250764-46.46304622c.1186429-1.14688161.6611702-2.15612006 1.4622872-2.87863812.8011171-.72251805 1.8608239-1.1583157 3.0138258-1.1583157z" stroke="#000" stroke-width="3"/><path d="m19 .80977806h13v3c0 1.65685425-1.3431458 3-3 3h-7c-1.6568542 0-3-1.34314575-3-3z" fill="#000"/><g fill="#fff"><path d="m25.3659794 35.3097781c4.4673539 0 6.6340206-2.2049674 6.6340206-4.7847792 0-5.6667661-9.0910653-3.7043452-9.0910653-6.5487531 0-.9701856.8487973-1.6866504 2.9931272-1.6866504.7383044 0 1.7506754.2726204 3.0371129.8178612.5804407.2460451 1.2522922.0009655 1.5380019-.5610128l.249347-.4904545c.3003673-.5907765.064928-1.3131861-.5258552-1.6135402-.0256572-.0130441-.0517753-.0251609-.0783038-.0363268-1.7364873-.7308962-3.143255-1.0963442-4.2203028-1.0963442-4.4450172 0-6.5893471 2.2189539-6.5893471 4.8428651 0 5.7329151 9.0910653 3.7484445 9.0910653 6.6369518 0 .9481359-.8711341 1.6537255-3.0154639 1.6537255-1.0389945 0-2.4016195-.3701805-4.0878749-1.1105414-.6005361-.2636724-1.3015155.0036562-1.5739766.6002563l-.2197326.4811422c-.2753169.6028501-.0097973 1.3147446.5930534 1.5900602.0134422.0061389.0269966.0120289.0406563.0176672 2.0800863.858582 3.8219322 1.2878731 5.2255376 1.2878731z" fill-rule="nonzero"/><path d="m1.2307877 65.8097781c-1.64105027-.7551901-1.64105027-4.5740168 0-11.4564799 2.4615754-10.3236947 11.5208886-20.9101821 15.6044325-18.0775097 4.0835438 2.8326724-3.7742651 9.0127921-5.1436692 15.1729435-.912936 4.1067676-.0059887 7.5176984 2.720842 10.2327925" stroke="#000" stroke-linecap="round" stroke-width="2"/></g></g></svg>