<svg height="140" width="140" xmlns="http://www.w3.org/2000/svg"><g fill="none"><path d="M0 0h140v140H0z" fill="#fff"/><path d="M5 29.407L106.26 13.37 122.3 114.63l-101.26 16.038z" fill="#fff" stroke="#5bcfea" stroke-width="6"/><path d="M32.2 5h102.523v102.523H32.2z" fill="#fff" stroke="#5bcfea" stroke-width="6"/><g fill="#5bcfea"><path d="M70.908 61.492l25.107 34.523H45.8z"/><path d="M98.108 43.708l27.2 52.307h-54.4zM52.077 57.613L48.844 59.4l.618-3.785-2.616-2.68 3.615-.553 1.616-3.444 1.616 3.444 3.615.552-2.616 2.681.618 3.785zm31.385-16.739l-3.233 1.788.617-3.785-2.615-2.681 3.614-.552 1.617-3.444 1.616 3.444 3.614.552-2.615 2.68.617 3.786zm23.015-15.692l-3.233 1.787.618-3.785-2.616-2.68 3.615-.553 1.616-3.443 1.616 3.443 3.615.553-2.616 2.68.618 3.785zm-46.03 5.231L57.212 32.2l.618-3.785-2.616-2.68 3.615-.553 1.616-3.444 1.617 3.444 3.614.552-2.615 2.681.617 3.785zm55.445 16.738l-3.232 1.787.617-3.785-2.615-2.68 3.614-.552 1.616-3.444 1.617 3.444 3.614.552-2.615 2.68.617 3.785z"/></g></g></svg>