<svg height="140" viewBox="0 0 140 140" width="140" xmlns="http://www.w3.org/2000/svg"><g fill="none"><path d="m0 0h140v140h-140z" fill="#fff"/><g transform="translate(5 5)"><path d="m7.38795674 15.7571875h102.52307726v102.5230765h-102.52307726z" fill="#fff" stroke="#5bcfea" stroke-width="6" transform="matrix(.98768834 -.15643447 .15643447 .98768834 -9.761966 9.999914)"/><path d="m27.2 0h102.523077v102.523077h-102.523077z" fill="#fff" stroke="#5bcfea" stroke-width="6"/><g fill="#5bcfea"><path d="m65.9076923 56.4923077 25.1076923 34.5230769h-50.2153846z"/><path d="m93.1076923 38.7076923 27.1999997 52.3076923h-54.3999997z"/><path d="m47.0769231 52.6129559-3.2327932 1.7870441.6174086-3.7850202-2.6153847-2.6805662 3.6143727-.5522269 1.6163966-3.4437252 1.6163966 3.4437252 3.6143726.5522269-2.6153845 2.6805662.6174085 3.7850202z"/><path d="m78.4615379 35.8744943-3.2327923 1.7870442.6174079-3.7850203-2.6153843-2.6805661 3.6143731-.5522269 1.6163956-3.4437252 1.6163967 3.4437252 3.6143731.5522269-2.6153855 2.6805661.6174091 3.7850203z"/><path d="m101.476922 20.1821866-3.2327918 1.7870442.617408-3.7850203-2.6153844-2.6805661 3.6143731-.5522269 1.6163951-3.4437252 1.616397 3.4437252 3.614373.5522269-2.615385 2.6805661.617409 3.7850203z"/><path d="m55.4461532 25.4129559-3.2327922 1.7870441.6174079-3.7850202-2.6153843-2.6805662 3.6143731-.5522269 1.6163955-3.4437252 1.6163968 3.4437252 3.6143731.5522269-2.6153856 2.6805662.6174092 3.7850202z"/><path d="m110.892307 42.1514174-3.232792 1.7870441.617408-3.7850202-2.615385-2.6805662 3.614374-.5522269 1.616395-3.4437251 1.616397 3.4437251 3.614373.5522269-2.615386 2.6805662.61741 3.7850202z"/></g></g></g></svg>