<svg viewBox="0 0 263.01 265.14" xmlns="http://www.w3.org/2000/svg"><g fill="#eb2131"><path d="m263 265.14-3.44-208.3h-57.9l-112 208.3h53.56l11.2-22.8h56.76l-1 22.8zm-83.2-74.46 37.44-81.41-3.7 81.41z"/><path d="m131.08 97.21-16.22-11.72c-2.24-1.68-4.38-3.22-6.33-4.63-9.7-7-13-9.61-12.75-13.65.53-7.76 6-11.75 14.89-12.21 14.7-.75 29.18 20.75 29.18 20.75l38.49-37.66s-20.93-38.09-62.17-38.09a79 79 0 0 0 -53.44 21 76.64 76.64 0 0 0 -25.14 51.29c-1.73 25.12 6.21 42.79 25.73 57.3l15.2 11.14c1.69 1.23 3.29 2.37 4.8 3.44 9.82 7 13 9.61 12.65 14.22-.75 10.89-10.92 12.52-16.91 12.52-22.35 0-35.61-28-35.61-28l-43.45 36.09s21 46.25 71.9 46.25a90.91 90.91 0 0 0 29.52-4.83l51.3-95.37c-3.34-11.15-10.27-19.82-21.64-27.84z"/></g></svg>
